<svg width="512" height="512" viewBox="0 0 512 512" fill="none" xmlns="http://www.w3.org/2000/svg">
<rect width="512" height="512" rx="112" fill="#F3F5ED"/>
<path fill-rule="evenodd" clip-rule="evenodd" d="M401.84 162.22C423.88 162.22 441.36 179.7 441.36 201.36C441.36 223.4 423.88 240.88 401.84 240.88C380.18 240.88 362.7 223.4 362.7 201.36C362.7 179.7 380.18 162.22 401.84 162.22ZM401.84 177.04C387.4 177.04 377.9 186.92 377.9 201.36C377.9 215.42 387.4 225.3 401.84 225.3C416.28 225.3 425.78 215.42 425.78 201.36C425.78 186.92 416.28 177.04 401.84 177.04ZM197.02 326.76C190.56 343.48 186 346.9 178.02 346.9C171.94 346.9 163.96 343.48 154.08 333.6C143.82 323.34 139.26 315.36 139.26 308.14C139.26 303.96 141.16 302.06 143.06 302.06C145.34 302.06 146.86 302.82 150.28 303.58C154.08 304.34 157.88 304.72 159.4 304.72C161.3 304.72 163.96 303.58 166.62 300.92C189.8 275.46 209.94 251.9 235.02 219.22C243 208.58 252.5 203.26 261.24 203.26C271.5 203.26 280.24 207.82 289.36 217.7C342.94 273.56 379.8 307 415.9 335.5C430.34 346.9 437.18 350.32 444.78 352.98C463.78 366.66 467.96 381.48 467.96 395.16C467.96 405.04 461.5 410.74 453.14 410.74C446.68 410.74 438.32 407.7 429.96 400.86C368.02 349.56 325.46 303.2 270.36 236.7C267.32 233.28 265.04 231.38 262.76 231.38C260.1 231.38 257.82 233.28 254.78 237.46C238.82 259.12 217.54 291.8 197.02 326.76Z" fill="#353538"/>
<path fill-rule="evenodd" clip-rule="evenodd" d="M56 56H112V456H56V56Z" fill="#353538"/>
<path fill-rule="evenodd" clip-rule="evenodd" d="M56 56H456V112H56V56Z" fill="#353538"/>
</svg>
